<?xml version="1.0" encoding="utf-8"?>
<!-- Generator: Adobe Illustrator 19.1.0, SVG Export Plug-In . SVG Version: 6.00 Build 0)  -->
<svg version="1.1" id="Layer_1" xmlns="http://www.w3.org/2000/svg" xmlns:xlink="http://www.w3.org/1999/xlink" x="0px" y="0px"
	 width="40px" height="40px" viewBox="-702 200.4 40 40" style="enable-background:new -702 200.4 40 40;" xml:space="preserve">
<style type="text/css">
	.st0{fill:#D70F64;}
</style>
<title>7ADB47BB-2CBB-4A71-A072-B61E5C310992</title>
<desc>Created with sketchtool.</desc>
<g id="Symbols">
	<g id="FOOTER_GRAY_2" transform="translate(-1056.000000, -32.000000)">
		<g id="social_ico">
			<g transform="translate(1008.000000, 32.000000)">
				<g id="ic_social_instagram_white" transform="translate(48.000000, 0.000000)">
					<g id="_x2D_g-ic_x5F_social_x5F_instagram_x5F_white">
						<path id="Fill-1" class="st0" d="M-682,209.4c-3,0-3.4,0-4.5,0.1c-1.2,0.1-2,0.2-2.7,0.5c-0.7,0.3-1.3,0.7-1.9,1.3
							c-0.6,0.6-1,1.2-1.3,1.9c-0.3,0.7-0.5,1.5-0.5,2.7c-0.1,1.2-0.1,1.5-0.1,4.5c0,3,0,3.4,0.1,4.5c0.1,1.2,0.2,2,0.5,2.7
							c0.3,0.7,0.7,1.3,1.3,1.9c0.6,0.6,1.2,1,1.9,1.3c0.7,0.3,1.5,0.5,2.7,0.5c1.2,0.1,1.5,0.1,4.5,0.1s3.4,0,4.5-0.1
							c1.2-0.1,2-0.2,2.7-0.5c0.7-0.3,1.3-0.7,1.9-1.3c0.6-0.6,1-1.2,1.3-1.9c0.3-0.7,0.5-1.5,0.5-2.7c0.1-1.2,0.1-1.5,0.1-4.5
							c0-3,0-3.4-0.1-4.5c-0.1-1.2-0.2-2-0.5-2.7c-0.3-0.7-0.7-1.3-1.3-1.9c-0.6-0.6-1.2-1-1.9-1.3c-0.7-0.3-1.5-0.5-2.7-0.5
							C-678.6,209.4-679,209.4-682,209.4 M-682,210.4c2.9,0,3.3,0,4.5,0.1c0.9,0,1.7,0.2,2.4,0.4c0.6,0.2,1.1,0.6,1.6,1
							c0.5,0.5,0.8,1,1,1.6c0.3,0.7,0.4,1.4,0.4,2.4c0.1,1.2,0.1,1.5,0.1,4.5c0,2.9,0,3.3-0.1,4.5c0,0.9-0.2,1.7-0.4,2.4
							c-0.2,0.6-0.6,1.1-1,1.6c-0.5,0.5-1,0.8-1.6,1c-0.7,0.3-1.4,0.4-2.4,0.4c-1.2,0.1-1.5,0.1-4.5,0.1s-3.3,0-4.5-0.1
							c-0.9,0-1.7-0.2-2.4-0.4c-0.6-0.2-1.1-0.6-1.6-1c-0.5-0.5-0.8-1-1-1.6c-0.3-0.7-0.4-1.4-0.4-2.4c-0.1-1.2-0.1-1.5-0.1-4.5
							c0-2.9,0-3.3,0.1-4.5c0-0.9,0.2-1.7,0.4-2.4c0.2-0.6,0.6-1.1,1-1.6c0.5-0.5,1-0.8,1.6-1c0.7-0.3,1.4-0.4,2.4-0.4
							C-685.3,210.4-684.9,210.4-682,210.4"/>
						<path id="Fill-3" class="st0" d="M-682,214.7c-3.1,0-5.6,2.5-5.6,5.6c0,3.1,2.5,5.6,5.6,5.6s5.6-2.5,5.6-5.6
							C-676.4,217.3-678.9,214.7-682,214.7 M-682,215.7c2.6,0,4.6,2.1,4.6,4.6c0,2.6-2.1,4.6-4.6,4.6s-4.6-2.1-4.6-4.6
							C-686.6,217.8-684.6,215.7-682,215.7"/>
						<path id="Fill-5" class="st0" d="M-676.1,213.5c-0.6,0-1,0.4-1,1s0.4,1,1,1c0.6,0,1-0.4,1-1S-675.6,213.5-676.1,213.5"/>
						<path id="Fill-7" class="st0" d="M-682,239.4c-10.5,0-19-8.5-19-19c0-10.5,8.5-19,19-19s19,8.5,19,19
							C-663,230.8-671.5,239.4-682,239.4 M-682,200.4c-11,0-20,9-20,20c0,11,9,20,20,20s20-9,20-20C-662,209.3-671,200.4-682,200.4"
							/>
					</g>
				</g>
			</g>
		</g>
	</g>
</g>
</svg>
