<?xml version="1.0" encoding="utf-8"?>
<!-- Generator: Adobe Illustrator 19.1.0, SVG Export Plug-In . SVG Version: 6.00 Build 0)  -->
<svg version="1.1" id="Layer_1" xmlns="http://www.w3.org/2000/svg" xmlns:xlink="http://www.w3.org/1999/xlink" x="0px" y="0px"
	 width="40px" height="40px" viewBox="-702 200.4 40 40" style="enable-background:new -702 200.4 40 40;" xml:space="preserve">
<style type="text/css">
	.st0{fill:#D70F64;}
</style>
<title>ic_social_twitter_color</title>
<path class="st0" d="M-671.6,213.8c0-0.1,0.1-0.2,0.1-0.3c0.2-0.5-0.1-1.1-0.7-1.3c-0.3-0.1-0.6-0.1-0.8,0.1
	c-0.5,0.3-1.1,0.6-1.7,0.7c-2.1-1.7-5.2-1.5-7,0.6c-0.7,0.8-1.1,1.9-1.1,2.9c-2.5-0.4-4.7-1.7-6.2-3.6c-0.2-0.2-0.5-0.4-0.8-0.4
	h-0.1c-0.3,0-0.6,0.2-0.8,0.5c-0.8,1.4-0.9,3-0.3,4.5c-0.3,0.2-0.5,0.5-0.5,0.9c0,1.3,0.5,2.6,1.5,3.5c-0.1,0.2-0.1,0.5,0,0.7
	c0.4,1.1,1.1,2.1,2.1,2.7c-0.8,0.3-1.6,0.4-2.4,0.4c-0.3,0-0.5,0-0.8,0h-0.1c-0.6,0-1,0.5-1,1c0,0.3,0.2,0.7,0.5,0.8
	c5.7,3.6,13.2,2,16.9-3.7c1.3-2,1.9-4.3,1.9-6.6l0,0c0.7-0.6,1.3-1.2,1.8-2c0.3-0.4,0.3-1.1-0.2-1.4
	C-671.4,213.9-671.5,213.8-671.6,213.8z M-673.9,216.8L-673.9,216.8c0,0.2,0,0.3,0,0.5c0,6.2-5,11.2-11.2,11.2c-2.1,0-4.2-0.6-6-1.8
	c0.3,0,0.6,0.1,0.9,0.1c1.8,0,3.5-0.6,4.9-1.7c-1.7,0-3.1-1.1-3.7-2.7c0.2,0,0.5,0.1,0.7,0.1c0.3,0,0.7-0.1,1-0.1
	c-1.8-0.4-3.1-2-3.1-3.9l0,0c0.5,0.3,1.2,0.5,1.8,0.5c-1.7-1.2-2.3-3.5-1.2-5.3c2,2.5,5,4,8.1,4.1c-0.1-0.3-0.1-0.6-0.1-0.9
	c0-2.2,1.8-3.9,3.9-3.9c1.1,0,2.1,0.5,2.9,1.2c0.9-0.2,1.7-0.5,2.5-1c-0.3,0.9-0.9,1.7-1.7,2.2c0.8-0.1,1.5-0.3,2.3-0.6
	C-672.4,215.5-673.1,216.2-673.9,216.8L-673.9,216.8z"/>
<path class="st0" d="M-682,200.4c-11,0-20,9-20,20s9,20,20,20s20-9,20-20S-671,200.4-682,200.4z M-682,239.4c-10.5,0-19-8.5-19-19
	s8.5-19,19-19s19,8.5,19,19l0,0C-663,230.9-671.5,239.4-682,239.4z"/>
</svg>
